<?xml version="1.0" standalone="no"?>
<!DOCTYPE svg PUBLIC "-//W3C//DTD SVG 20010904//EN"
 "http://www.w3.org/TR/2001/REC-SVG-20010904/DTD/svg10.dtd">
<svg version="1.0" xmlns="http://www.w3.org/2000/svg"
 width="1000.000000pt" height="1000.000000pt" viewBox="0 0 1000.000000 1000.000000"
 preserveAspectRatio="xMidYMid meet">
<metadata>
Created by potrace 1.11, written by Peter Selinger 2001-2013
</metadata>
<g transform="translate(0.000000,1000.000000) scale(0.100000,-0.100000)"
fill="#000000" stroke="none">
<path d="M0 5000 l0 -5000 5000 0 5000 0 0 5000 0 5000 -5000 0 -5000 0 0
-5000z m5185 2946 c118 -90 88 -270 -52 -317 -126 -41 -257 84 -222 214 25 93
87 139 181 134 43 -2 65 -10 93 -31z m-502 -80 c79 -32 114 -121 79 -199 -48
-109 -184 -128 -255 -36 -48 63 -48 133 0 190 47 55 112 72 176 45z m986 -18
c81 -61 113 -117 113 -198 0 -212 -257 -305 -391 -143 -87 105 -55 279 62 340
61 31 174 32 216 1z m-1314 -142 c21 -11 53 -41 70 -64 27 -39 30 -52 30 -115
0 -65 -3 -77 -32 -119 -39 -56 -100 -88 -166 -88 -122 0 -206 85 -207 208 0
159 163 255 305 178z m1745 -192 c64 -35 122 -104 140 -168 19 -70 9 -174 -24
-229 -72 -124 -215 -177 -352 -130 -66 22 -145 101 -167 167 -20 57 -22 148
-5 197 27 81 99 153 185 185 60 23 159 13 223 -22z m-2095 -213 c232 -123 143
-486 -119 -484 -71 0 -118 18 -171 64 -105 93 -114 271 -17 372 83 87 199 105
307 48z m2190 -472 c56 -16 129 -91 145 -149 55 -206 -188 -366 -346 -228
-104 91 -103 252 1 335 62 50 124 63 200 42z m-2112 -157 c92 -44 141 -91 184
-180 36 -71 38 -82 38 -166 0 -81 -3 -98 -32 -158 -40 -85 -106 -151 -191
-191 -60 -28 -77 -32 -157 -32 -70 1 -103 6 -147 24 -81 31 -160 106 -200 189
-31 62 -33 74 -33 167 0 87 3 107 26 156 92 196 322 281 512 191z m1847 -292
c41 -11 94 -61 109 -103 56 -147 -100 -287 -239 -215 -84 43 -117 158 -69 238
47 76 115 103 199 80z m-292 -337 c41 -31 66 -80 66 -132 -1 -94 -69 -165
-158 -165 -68 0 -117 30 -147 90 -38 80 -16 159 62 212 28 20 44 23 92 20 37
-3 67 -11 85 -25z m-1024 -103 c107 -27 169 -63 251 -145 104 -104 164 -245
165 -386 1 -191 -115 -390 -281 -482 -91 -50 -157 -67 -267 -67 -248 0 -453
156 -526 400 -20 66 -22 206 -5 276 61 246 278 420 530 423 31 1 91 -8 133
-19z m652 -79 c111 -51 114 -214 4 -272 -119 -64 -257 61 -209 188 21 56 83
102 139 102 14 0 43 -8 66 -18z m-1468 -628 c87 -66 79 -185 -18 -250 -110
-75 -261 45 -222 176 13 43 57 88 98 101 43 14 104 2 142 -27z m3709 -89 c110
-84 92 -264 -32 -324 -88 -43 -189 -15 -246 68 -19 29 -24 48 -24 102 0 56 4
73 27 108 60 90 189 112 275 46z m-4147 1 c119 -62 128 -226 17 -309 -42 -31
-150 -30 -195 2 -50 37 -75 94 -70 164 9 129 135 201 248 143z m1841 -191
c195 -57 321 -227 320 -433 0 -229 -150 -405 -377 -444 -181 -31 -385 77 -464
245 -65 138 -64 264 1 403 28 60 109 148 166 182 103 60 244 79 354 47z
m-2159 -80 c59 -41 90 -100 91 -172 2 -226 -297 -301 -397 -101 -55 112 -12
239 99 291 61 29 152 21 207 -18z m4195 -130 c102 -81 108 -227 14 -307 -57
-48 -130 -58 -196 -28 -111 50 -150 187 -82 290 56 85 186 107 264 45z m-4516
-332 c151 -79 181 -273 60 -393 -134 -135 -353 -77 -407 107 -20 70 -13 122
26 191 66 116 203 157 321 95z m4158 -78 c220 -65 245 -375 39 -478 -100 -50
-235 -25 -304 57 -120 142 -63 359 108 418 65 23 90 23 157 3z m-1015 -75 c77
-28 148 -96 188 -177 31 -62 33 -74 33 -167 0 -90 -3 -106 -29 -159 -37 -76
-102 -140 -174 -174 -84 -39 -193 -38 -280 2 -131 60 -205 181 -206 336 -1 75
3 93 31 152 46 98 126 169 223 199 51 15 158 10 214 -12z m-3188 -396 c71 -24
164 -120 187 -192 49 -155 -18 -318 -161 -388 -76 -37 -181 -39 -260 -4 -66
30 -141 110 -165 177 -59 166 27 352 190 410 53 18 150 17 209 -3z m3888 -34
c77 -28 148 -96 188 -177 30 -61 33 -74 33 -162 0 -85 -3 -101 -29 -154 -146
-297 -561 -259 -652 58 -51 183 55 387 230 442 64 20 167 17 230 -7z m570
-476 c58 -30 93 -63 122 -115 37 -69 41 -170 7 -234 -50 -94 -130 -144 -233
-144 -104 0 -184 49 -231 142 -73 144 14 328 174 369 43 11 123 2 161 -18z
m-3921 -123 c81 -31 175 -119 213 -202 26 -57 29 -73 29 -173 0 -101 -2 -115
-29 -170 -38 -77 -114 -153 -191 -191 -55 -26 -69 -29 -165 -29 -97 0 -110 2
-170 31 -300 142 -307 569 -10 719 27 14 67 30 87 35 57 14 171 4 236 -20z
m2794 -40 c79 -36 137 -95 176 -178 29 -60 32 -77 32 -157 0 -76 -4 -99 -27
-147 -35 -75 -107 -151 -176 -185 -78 -38 -194 -44 -274 -13 -178 67 -279 280
-218 459 73 217 286 314 487 221z m1629 -208 c12 -6 35 -27 52 -46 78 -89 63
-208 -34 -282 -33 -26 -46 -29 -109 -29 -63 0 -76 3 -109 29 -70 53 -97 127
-76 205 11 43 58 104 94 123 48 26 133 26 182 0z m-3517 -27 c146 -38 278
-148 344 -286 172 -358 -84 -772 -478 -772 -294 0 -535 244 -535 543 0 64 34
190 67 253 61 116 202 227 330 262 65 18 206 18 272 0z m1022 -65 c121 -23
233 -99 299 -202 53 -81 74 -165 68 -276 -4 -79 -9 -100 -41 -164 -46 -94
-130 -176 -224 -220 -56 -27 -83 -33 -156 -36 -198 -10 -357 83 -439 255 -83
175 -51 368 84 509 110 115 256 163 409 134z"/>
</g>
</svg>
