<svg width="195" height="22" xmlns="http://www.w3.org/2000/svg" xmlns:xlink="http://www.w3.org/1999/xlink"><defs><path id="a" d="M0 21.883h194.514V0H0z"/></defs><g fill="none" fill-rule="evenodd"><path d="M31.632 12.38c.046.391.146.67.3.833.273.294.777.44 1.511.44.432 0 .775-.064 1.03-.193.254-.128.381-.32.381-.578a.625.625 0 0 0-.307-.563c-.205-.128-.968-.35-2.288-.663-.95-.237-1.62-.532-2.008-.887-.389-.35-.583-.853-.583-1.511 0-.777.304-1.444.911-2.001.607-.558 1.462-.837 2.564-.837 1.046 0 1.898.21 2.556.628.659.42 1.037 1.143 1.134 2.171h-2.186c-.031-.283-.11-.506-.239-.67-.24-.299-.651-.448-1.23-.448-.477 0-.817.074-1.02.223-.202.15-.304.324-.304.525 0 .252.108.434.324.547.215.119.976.322 2.282.61.871.205 1.524.516 1.959.933.43.421.644.948.644 1.58 0 .833-.308 1.513-.926 2.04-.618.527-1.572.79-2.863.79-1.317 0-2.29-.278-2.917-.836-.628-.558-.942-1.269-.942-2.132h2.217zM43.323 10.977c-.14.088-.281.158-.424.212a3.564 3.564 0 0 1-.587.15l-.498.093c-.466.083-.801.183-1.005.3-.344.201-.516.513-.516.934 0 .375.105.647.315.814.21.167.466.25.768.25.477 0 .917-.139 1.32-.416.403-.278.611-.784.627-1.52v-.817zm-1.337-1.025c.407-.052.698-.116.873-.193.315-.134.472-.342.472-.625 0-.344-.12-.582-.362-.713-.24-.131-.595-.197-1.061-.197-.524 0-.895.129-1.112.386-.156.19-.26.447-.311.771h-2.11c.046-.735.252-1.34.616-1.812.58-.74 1.577-1.11 2.99-1.11.92 0 1.736.182 2.45.547.714.365 1.07 1.054 1.07 2.067v3.855c0 .267.006.591.016.972.015.288.059.483.13.586a.782.782 0 0 0 .323.254v.324h-2.378a2.448 2.448 0 0 1-.138-.478 5.764 5.764 0 0 1-.062-.509 4.51 4.51 0 0 1-1.05.84 3.158 3.158 0 0 1-1.604.41c-.762 0-1.39-.218-1.887-.652-.496-.435-.744-1.05-.744-1.847 0-1.033.399-1.781 1.197-2.244.438-.252 1.082-.432 1.933-.54l.75-.092zM57.845 6.69c.358.144.683.396.974.755.235.293.394.653.476 1.08.051.283.077.697.077 1.242l-.016 5.297h-2.24V9.713c0-.32-.05-.581-.153-.787-.195-.39-.553-.586-1.074-.586-.604 0-1.02.252-1.25.756-.118.267-.177.588-.177.964v5.004H52.26V10.06c0-.499-.051-.861-.153-1.088-.184-.406-.545-.609-1.082-.609-.624 0-1.043.203-1.258.61-.118.23-.176.575-.176 1.033v5.058h-2.217v-8.39h2.125V7.9c.27-.436.526-.748.767-.933.424-.329.974-.493 1.649-.493.64 0 1.156.141 1.55.424.317.262.557.599.72 1.01.287-.493.643-.856 1.067-1.087a3.24 3.24 0 0 1 1.504-.347 2.9 2.9 0 0 1 1.089.216M67.391 6.705c.42.18.765.456 1.035.826.23.314.37.637.42.97.051.33.077.872.077 1.624v4.94H66.69V9.945c0-.453-.076-.818-.228-1.096-.198-.391-.574-.587-1.127-.587-.574 0-1.01.194-1.306.583-.297.388-.446.943-.446 1.663v4.555h-2.186V3.736h2.186v4.01c.316-.488.681-.829 1.096-1.021.415-.193.852-.29 1.31-.29.515 0 .982.09 1.402.27M76.203 12.821c.342-.457.514-1.106.514-1.948 0-.842-.172-1.49-.514-1.944-.343-.454-.834-.682-1.473-.682-.64 0-1.132.228-1.477.682-.345.454-.518 1.102-.518 1.944 0 .842.173 1.491.518 1.948.345.457.837.686 1.477.686.64 0 1.13-.229 1.473-.686m1.749 1.215c-.706.876-1.777 1.313-3.215 1.313-1.437 0-2.508-.437-3.214-1.313-.706-.876-1.059-1.93-1.059-3.163 0-1.212.353-2.262 1.06-3.15.705-.89 1.776-1.334 3.213-1.334 1.438 0 2.51.444 3.215 1.333.706.889 1.058 1.94 1.058 3.151 0 1.233-.352 2.287-1.058 3.163M82.754 6.659v5.066c0 .478.056.838.168 1.08.198.427.588.64 1.168.64.743 0 1.252-.303 1.527-.91.142-.329.213-.763.213-1.303V6.659h2.217v8.405h-2.125v-1.187c-.02.026-.071.103-.153.231a1.541 1.541 0 0 1-.29.34c-.342.308-.672.519-.991.632-.319.113-.692.17-1.12.17-1.235 0-2.066-.448-2.495-1.342-.24-.494-.359-1.221-.359-2.183V6.66h2.24zM95.143 12.782c.322-.463.483-1.062.483-1.797 0-1.028-.258-1.763-.774-2.206a1.663 1.663 0 0 0-1.105-.4c-.64 0-1.109.242-1.408.728-.299.486-.449 1.089-.449 1.809 0 .776.153 1.397.457 1.862.304.465.766.698 1.385.698.618 0 1.089-.232 1.411-.694m-.537-5.988c.394.223.714.533.96.93v-4.01h2.216v11.35h-2.125V13.9c-.312.498-.667.86-1.066 1.087-.4.226-.895.34-1.488.34-.977 0-1.8-.398-2.467-1.192-.667-.794-1-1.813-1-3.058 0-1.434.328-2.562.985-3.385.657-.822 1.535-1.234 2.635-1.234.506 0 .956.112 1.35.336" fill="#1E94D1"/><path d="M109.136 9.674a1.952 1.952 0 0 0-.315-.848c-.247-.34-.629-.51-1.146-.51-.739 0-1.244.368-1.515 1.104-.144.39-.215.907-.215 1.553 0 .616.071 1.11.215 1.485.261.699.753 1.049 1.476 1.049.513 0 .877-.14 1.092-.417.216-.277.346-.637.393-1.08h2.232c-.051.669-.292 1.301-.722 1.898-.686.96-1.702 1.442-3.048 1.442-1.347 0-2.337-.401-2.972-1.203-.635-.802-.953-1.842-.953-3.12 0-1.442.351-2.564 1.052-3.366.702-.802 1.67-1.203 2.903-1.203 1.05 0 1.908.237 2.576.71.668.473 1.064 1.308 1.187 2.506h-2.24zM118.096 12.821c.342-.457.514-1.106.514-1.948 0-.842-.172-1.49-.514-1.944-.343-.454-.834-.682-1.473-.682-.64 0-1.131.228-1.477.682-.345.454-.517 1.102-.517 1.944 0 .842.172 1.491.517 1.948.346.457.838.686 1.477.686.64 0 1.13-.229 1.473-.686m1.75 1.215c-.707.876-1.778 1.313-3.215 1.313-1.437 0-2.509-.437-3.215-1.313-.705-.876-1.058-1.93-1.058-3.163 0-1.212.353-2.262 1.058-3.15.706-.89 1.778-1.334 3.215-1.334 1.437 0 2.508.444 3.214 1.333s1.059 1.94 1.059 3.151c0 1.233-.353 2.287-1.059 3.163M129.211 7.141c.548.455.822 1.21.822 2.263v5.66h-2.24V9.952c0-.442-.059-.782-.176-1.018-.213-.432-.619-.648-1.218-.648-.736 0-1.241.316-1.515.949-.143.334-.214.76-.214 1.28v4.55h-2.186v-8.39h2.117V7.9c.28-.431.545-.742.795-.933.448-.339 1.016-.508 1.703-.508.86 0 1.565.227 2.112.682M133.761 12.38c.046.391.146.67.3.833.273.294.776.44 1.511.44.432 0 .775-.064 1.03-.193.254-.128.381-.32.381-.578a.625.625 0 0 0-.307-.563c-.205-.128-.968-.35-2.288-.663-.95-.237-1.62-.532-2.008-.887-.389-.35-.583-.853-.583-1.511 0-.777.304-1.444.911-2.001.607-.558 1.462-.837 2.564-.837 1.046 0 1.898.21 2.556.628.659.42 1.037 1.143 1.134 2.171h-2.186c-.03-.283-.11-.506-.239-.67-.24-.299-.651-.448-1.23-.448-.477 0-.817.074-1.02.223-.202.15-.303.324-.303.525 0 .252.107.434.323.547.215.119.976.322 2.282.61.871.205 1.524.516 1.959.933.43.421.644.948.644 1.58 0 .833-.309 1.513-.926 2.04-.618.527-1.572.79-2.863.79-1.317 0-2.29-.278-2.917-.836-.628-.558-.942-1.269-.942-2.132h2.217zM142.982 6.659v5.066c0 .478.056.838.168 1.08.198.427.588.64 1.168.64.743 0 1.251-.303 1.526-.91.143-.329.214-.763.214-1.303V6.659h2.217v8.405h-2.125v-1.187c-.02.026-.071.103-.153.231a1.541 1.541 0 0 1-.29.34c-.342.308-.672.519-.991.632-.32.113-.692.17-1.12.17-1.235 0-2.066-.448-2.495-1.342-.24-.494-.36-1.221-.36-2.183V6.66h2.24z" fill="#1F93D0"/><mask id="b" fill="#fff"><use xlink:href="#a"/></mask><path fill="#1F93D0" mask="url(#b)" d="M150.446 15.064h2.186V3.698h-2.186zM153.906 8.301V6.736h1.166V4.392h2.163v2.344h1.358v1.565h-1.358v4.442c0 .345.044.56.13.644.087.085.353.127.798.127a6.09 6.09 0 0 0 .43-.015v1.642l-1.036.039c-1.033.036-1.738-.144-2.117-.54-.245-.252-.368-.64-.368-1.164V8.3h-1.166zM164.646 10.977c-.14.088-.282.158-.424.212a3.565 3.565 0 0 1-.587.15l-.498.093c-.466.083-.802.183-1.005.3-.344.201-.516.513-.516.934 0 .375.105.647.315.814.21.167.466.25.767.25.478 0 .918-.139 1.32-.416.403-.278.612-.784.628-1.52v-.817zm-1.337-1.025c.407-.052.698-.116.873-.193.314-.134.471-.342.471-.625 0-.344-.12-.582-.361-.713s-.595-.197-1.062-.197c-.523 0-.894.129-1.112.386-.155.19-.259.447-.31.771h-2.11c.046-.735.251-1.34.616-1.812.58-.74 1.577-1.11 2.99-1.11.919 0 1.736.182 2.45.547.713.365 1.07 1.054 1.07 2.067v3.855c0 .267.005.591.016.972.015.288.059.483.13.586a.783.783 0 0 0 .322.254v.324h-2.378a2.448 2.448 0 0 1-.138-.478 5.764 5.764 0 0 1-.061-.509c-.304.33-.654.61-1.05.84a3.159 3.159 0 0 1-1.605.41c-.761 0-1.39-.218-1.886-.652-.497-.435-.745-1.05-.745-1.847 0-1.033.4-1.781 1.198-2.244.438-.252 1.082-.432 1.932-.54l.75-.092zM175.477 7.141c.548.455.822 1.21.822 2.263v5.66h-2.24V9.952c0-.442-.059-.782-.176-1.018-.213-.432-.619-.648-1.218-.648-.736 0-1.241.316-1.515.949-.143.334-.214.76-.214 1.28v4.55h-2.186v-8.39h2.117V7.9c.28-.431.545-.742.795-.933.448-.339 1.016-.508 1.703-.508.86 0 1.565.227 2.112.682M183.333 9.674a1.952 1.952 0 0 0-.315-.848c-.246-.34-.628-.51-1.146-.51-.738 0-1.243.368-1.515 1.104-.143.39-.215.907-.215 1.553 0 .616.072 1.11.215 1.485.262.699.754 1.049 1.477 1.049.512 0 .877-.14 1.092-.417.215-.277.346-.637.392-1.08h2.232c-.05.669-.292 1.301-.722 1.898-.686.96-1.702 1.442-3.048 1.442s-2.337-.401-2.972-1.203c-.635-.802-.952-1.842-.952-3.12 0-1.442.35-2.564 1.052-3.366.701-.802 1.669-1.203 2.903-1.203 1.05 0 1.908.237 2.576.71.668.473 1.063 1.308 1.186 2.506h-2.24zM187.4 16.676l.275.015c.215.01.42.003.614-.023s.358-.085.49-.177c.129-.088.248-.27.358-.548.11-.277.157-.447.142-.509l-3.073-8.775h2.432l1.826 6.2 1.726-6.2h2.324l-2.867 8.266c-.553 1.594-.992 2.582-1.314 2.965-.323.383-.968.575-1.936.575a13.521 13.521 0 0 1-.998-.03v-1.76z"/><path d="M21.77 10.941c0 6.043-4.874 10.942-10.885 10.942C4.873 21.883 0 16.984 0 10.94 0 4.9 4.873 0 10.885 0c6.011 0 10.884 4.899 10.884 10.941" fill="#1E94D1" mask="url(#b)"/><path d="M10.855 9.856c0 .753-.607 1.365-1.358 1.365-.75 0-1.358-.612-1.358-1.365 0-.754.608-1.366 1.358-1.366.75 0 1.358.612 1.358 1.366M11.476 3.868a.446.446 0 1 1-.89 0c0-.245.199-.448.445-.448s.445.201.445.448M13.574 7.946a.43.43 0 1 1-.858 0 .429.429 0 1 1 .858 0M12.698 8.632a.412.412 0 1 1-.825 0 .413.413 0 0 1 .825 0M11.728 9.1a.382.382 0 1 1-.762 0c0-.211.17-.384.381-.384.21 0 .381.173.381.384M7.097 10.952a.442.442 0 0 1-.46.422.442.442 0 0 1 .039-.884c.242.011.431.218.42.462M8.025 10.547a.382.382 0 1 1-.762 0 .382.382 0 1 1 .762 0M10.347 4.052a.382.382 0 1 1-.762 0 .382.382 0 1 1 .762 0M14.098 5.334a.736.736 0 0 1-.735.739.739.739 0 0 1-.001-1.477c.407 0 .736.33.736.738M8.77 5.787a.656.656 0 1 1-1.31 0c0-.363.293-.658.654-.658.361 0 .656.295.656.658M16.707 15.565c0 .364-.293.66-.655.66a.659.659 0 0 1 0-1.318.658.658 0 0 1 .655.658M16.11 13.132c0 .363-.293.66-.654.66a.658.658 0 0 1 0-1.318c.361 0 .655.295.655.658M5.59 14.513a.794.794 0 1 1-1.585 0c0-.44.355-.798.793-.798.438 0 .793.357.793.798M12.803 4.256a.566.566 0 1 1-1.133 0 .566.566 0 1 1 1.133 0M14.216 6.837a.548.548 0 0 1-1.094 0 .548.548 0 1 1 1.094 0M9.49 4.644a.521.521 0 0 1-.519.522.52.52 0 0 1-.517-.522.518.518 0 1 1 1.037 0M6.216 11.669a.536.536 0 0 1-1.07 0 .535.535 0 1 1 1.07 0M5.514 12.841a.623.623 0 1 1-1.243 0c0-.346.278-.627.622-.627.343 0 .621.281.621.627M17.764 16.233a.488.488 0 0 1-.976 0 .489.489 0 1 1 .976 0M17.354 10.917a.489.489 0 1 1 0 0M16.703 11.96a.489.489 0 0 1-.488.49.489.489 0 0 1 0-.979c.27 0 .488.218.488.488M6.948 16.158c0 .542-.437.979-.974.979a.978.978 0 0 1-.976-.978c0-.542.436-.98.976-.98.537 0 .974.438.974.979M9.137 7.654c0 .53-.427.961-.954.961a.957.957 0 0 1-.953-.96c0-.529.428-.958.953-.958.527 0 .954.43.954.957M15.39 14.66c0 .497-.4.9-.896.9a.898.898 0 0 1-.896-.9.896.896 0 0 1 1.792-.001M13.993 16.164a.909.909 0 0 1-.906.911.91.91 0 0 1 0-1.822c.5 0 .906.407.906.911M13.698 13.516c0 .5-.4.9-.894.9a.897.897 0 0 1-.896-.898c0-.498.401-.9.896-.9.493 0 .894.402.894.898M12.175 12.08c0 .615-.493 1.11-1.103 1.11s-1.105-.495-1.105-1.109c0-.613.495-1.11 1.105-1.11.609 0 1.103.497 1.103 1.109M9.648 17.134c0 .734-.592 1.328-1.322 1.328-.73 0-1.322-.594-1.322-1.328 0-.734.592-1.328 1.322-1.328.73 0 1.322.594 1.322 1.328M12.142 17.125c0 .62-.501 1.124-1.119 1.124a1.122 1.122 0 0 1-1.119-1.124c0-.621.5-1.125 1.119-1.125.618 0 1.119.504 1.119 1.125" fill="#FEFEFE" mask="url(#b)"/><path fill="#1F93D0" mask="url(#b)" d="M100.555 16.395h.746V1.879h-.746z"/></g></svg>

